<?xml version="1.0" standalone="no"?>
<!DOCTYPE svg PUBLIC "-//W3C//DTD SVG 20010904//EN"
 "http://www.w3.org/TR/2001/REC-SVG-20010904/DTD/svg10.dtd">
<svg version="1.0" xmlns="http://www.w3.org/2000/svg"
 width="700.000000pt" height="700.000000pt" viewBox="0 0 700.000000 700.000000"
 preserveAspectRatio="xMidYMid meet">
<metadata>
Created by potrace 1.14, written by Peter Selinger 2001-2017
</metadata>
<g transform="translate(0.000000,700.000000) scale(0.100000,-0.100000)"
fill="#000000" stroke="none">
<path d="M0 3500 l0 -3500 3500 0 3500 0 0 3500 0 3500 -3500 0 -3500 0 0
-3500z m5479 2870 c90 -28 217 -74 283 -101 209 -86 304 -111 455 -116 123 -5
135 -4 179 18 27 12 76 47 111 76 53 45 69 53 103 53 l40 0 0 -800 0 -800 -44
0 -44 0 -12 53 c-32 151 -168 571 -224 692 -77 166 -219 360 -354 485 -262
243 -585 368 -994 387 -76 3 -138 8 -138 10 0 2 15 26 33 54 l32 50 205 -4
205 -4 164 -53z m-2944 -1970 c273 -718 503 -1318 511 -1334 10 -21 14 -71 14
-183 l0 -153 -907 0 -908 0 -359 -958 c-197 -526 -362 -960 -366 -965 -3 -4
-70 17 -149 45 -124 46 -141 56 -138 73 4 20 699 1871 779 2075 29 74 956
2543 1013 2699 3 8 7 12 9 10 2 -2 228 -591 501 -1309z m4245 -2860 l0 -840
-65 0 c-64 0 -65 0 -126 55 -77 69 -152 95 -274 95 -117 0 -209 -20 -408 -89
-189 -65 -453 -130 -666 -164 -183 -28 -602 -30 -786 -4 -363 53 -659 168
-974 378 -372 248 -646 521 -885 884 -121 183 -234 381 -223 391 4 4 655 -118
754 -141 17 -4 26 -18 38 -63 85 -308 228 -621 369 -808 57 -77 201 -215 290
-278 254 -181 608 -276 1028 -276 366 0 615 47 843 159 382 188 632 455 789
841 29 71 163 512 191 628 l17 72 44 0 44 0 0 -840z"/>
<path d="M1726 3998 c-170 -453 -311 -829 -313 -835 -4 -10 125 -13 626 -13
347 0 631 2 631 6 0 7 -620 1635 -629 1652 -4 7 -142 -348 -315 -810z"/>
</g>
</svg>
