<?xml version="1.0" standalone="no"?>
<!DOCTYPE svg PUBLIC "-//W3C//DTD SVG 20010904//EN"
 "http://www.w3.org/TR/2001/REC-SVG-20010904/DTD/svg10.dtd">
<svg version="1.0" xmlns="http://www.w3.org/2000/svg"
 width="700.000000pt" height="700.000000pt" viewBox="0 0 700.000000 700.000000"
 preserveAspectRatio="xMidYMid meet">
<metadata>
Created by potrace 1.14, written by Peter Selinger 2001-2017
</metadata>
<g transform="translate(0.000000,700.000000) scale(0.100000,-0.100000)"
fill="#000000" stroke="none">
<path d="M0 3500 l0 -3500 3500 0 3500 0 0 3500 0 3500 -3500 0 -3500 0 0
-3500z m5479 2870 c90 -28 217 -74 283 -101 212 -87 305 -111 455 -117 123 -4
135 -3 180 19 26 12 75 47 110 76 53 45 69 53 103 53 l40 0 0 -800 0 -800 -44
0 -44 0 -12 52 c-32 149 -166 568 -220 683 -115 250 -310 483 -524 627 -243
162 -494 240 -828 255 -76 3 -138 8 -138 10 0 2 15 26 33 54 l32 50 205 -4
205 -4 164 -53z m-2944 -1970 c273 -718 503 -1318 511 -1334 10 -21 14 -71 14
-183 l0 -153 -907 0 -908 0 -359 -958 c-198 -526 -362 -960 -366 -965 -3 -4
-70 17 -149 45 -124 46 -141 56 -138 73 4 19 697 1865 778 2072 28 72 960
2553 1014 2702 3 8 7 12 9 10 2 -2 228 -591 501 -1309z m4245 -2860 l0 -840
-65 0 c-64 0 -65 0 -126 55 -77 69 -152 95 -274 95 -117 0 -209 -20 -408 -89
-189 -65 -453 -130 -666 -164 -198 -31 -614 -30 -816 1 -357 56 -641 169 -960
383 -359 241 -632 515 -870 874 -85 129 -225 369 -225 387 0 5 3 8 8 8 16 0
763 -148 767 -152 2 -2 20 -58 40 -123 78 -257 180 -486 295 -665 111 -170
330 -365 516 -458 147 -74 387 -138 606 -161 123 -14 370 -14 513 -1 250 23
405 63 580 149 382 188 632 455 789 841 29 71 163 512 191 628 l17 72 44 0 44
0 0 -840z"/>
<path d="M1726 3998 c-170 -453 -311 -829 -313 -835 -4 -10 125 -13 626 -13
347 0 631 2 631 6 0 7 -620 1635 -629 1652 -4 7 -142 -348 -315 -810z"/>
</g>
</svg>
