<?xml version="1.0" standalone="no"?>
<!DOCTYPE svg PUBLIC "-//W3C//DTD SVG 20010904//EN"
 "http://www.w3.org/TR/2001/REC-SVG-20010904/DTD/svg10.dtd">
<svg version="1.0" xmlns="http://www.w3.org/2000/svg"
 width="1800.000000pt" height="1800.000000pt" viewBox="0 0 1800.000000 1800.000000"
 preserveAspectRatio="xMidYMid meet">
<metadata>
Created by potrace 1.16, written by Peter Selinger 2001-2019
</metadata>
<g transform="translate(0.000000,1800.000000) scale(0.100000,-0.100000)"
fill="#000000" stroke="none">
<path d="M11367 15112 c-103 -158 -103 -142 5 -142 233 0 615 -39 843 -85 576
-117 1078 -371 1515 -767 299 -271 600 -704 781 -1123 138 -321 320 -877 420
-1287 l34 -138 98 0 97 0 0 1670 0 1670 -130 0 -131 0 -72 -73 c-149 -150
-247 -216 -367 -245 -99 -24 -276 -34 -395 -23 -172 17 -310 57 -646 186 -510
197 -557 214 -726 265 -428 130 -685 175 -1064 187 l-197 6 -65 -101z"/>
<path d="M5338 13673 c-9 -21 -491 -1298 -1073 -2838 -582 -1540 -1063 -2807
-1070 -2815 -14 -17 -1695 -4464 -1695 -4483 0 -7 137 -63 306 -127 168 -63
309 -116 313 -118 4 -1 351 909 772 2023 l764 2025 1928 0 1927 0 0 336 0 337
-1071 2841 c-589 1562 -1074 2845 -1078 2849 -5 5 -15 -9 -23 -30z m692 -3656
c365 -967 661 -1760 658 -1762 -3 -3 -605 -4 -1339 -3 l-1335 3 670 1773 c369
975 673 1767 677 1760 4 -7 305 -804 669 -1771z"/>
<path d="M15187 6548 c-203 -727 -360 -1225 -469 -1483 -271 -646 -702 -1169
-1240 -1504 -526 -329 -1050 -477 -1838 -522 -335 -19 -780 -2 -1070 41 -444
66 -861 193 -1170 356 -356 188 -677 472 -946 836 -301 407 -577 1033 -731
1656 -14 59 -29 110 -32 114 -6 6 -1617 318 -1646 318 -17 0 48 -136 173 -360
540 -968 1226 -1735 2057 -2302 628 -429 1401 -727 2195 -847 272 -41 423 -53
756 -58 555 -9 861 22 1399 142 269 61 445 110 937 264 229 72 461 139 515
150 216 44 400 49 573 15 140 -28 237 -86 404 -244 l84 -80 126 0 126 0 0
1780 0 1780 -94 0 -95 0 -14 -52z"/>
</g>
</svg>
