<?xml version="1.0" encoding="utf-8"?>
<!-- Generator: Adobe Illustrator 25.2.3, SVG Export Plug-In . SVG Version: 6.00 Build 0)  -->
<svg version="1.1" id="Layer_1" xmlns="http://www.w3.org/2000/svg" xmlns:xlink="http://www.w3.org/1999/xlink" x="0px" y="0px"
	 viewBox="0 0 32 32" style="enable-background:new 0 0 32 32;" xml:space="preserve">
<style type="text/css">
	.st0{fill:#7078A9;}
	.st1{clip-path:url(#SVGID_2_);fill:#FFFFFF;}
	.st2{clip-path:url(#SVGID_4_);fill:#FFFFFF;}
	.st3{fill:none;stroke:#FFFFFF;stroke-width:1.44;}
	.st4{clip-path:url(#SVGID_6_);fill:none;stroke:#FFFFFF;stroke-width:1.44;}
</style>
<rect class="st0" width="32" height="32"/>
<g>
	<g>
		<defs>
			<rect id="SVGID_1_" x="1" y="2.6" width="30" height="26.8"/>
		</defs>
		<clipPath id="SVGID_2_">
			<use xlink:href="#SVGID_1_"  style="overflow:visible;"/>
		</clipPath>
		<path class="st1" d="M10.8,21.7c0.8,1.6,1.8,3,3,4.2c1.3,1.2,2.6,2.1,4,2.7s2.9,0.8,4.4,0.8c0.8,0,1.6-0.1,2.2-0.2
			s1.3-0.3,1.8-0.4c0.5-0.2,1-0.3,1.4-0.5c0.4-0.1,0.8-0.2,1.2-0.2c0.5,0,0.8,0.1,1,0.2s0.4,0.3,0.6,0.5H31v-7.7h-0.4
			c-0.2,0.9-0.5,1.8-0.8,2.8c-0.3,0.9-0.8,1.8-1.4,2.5S27,27.7,26,28.2s-2.3,0.7-3.9,0.7c-1.2,0-2.4-0.2-3.4-0.6s-1.9-1.1-2.6-2
			c-0.7-1-1.3-2.3-1.7-3.9"/>
	</g>
	<g>
		<defs>
			<rect id="SVGID_3_" x="1" y="2.6" width="30" height="26.8"/>
		</defs>
		<clipPath id="SVGID_4_">
			<use xlink:href="#SVGID_3_"  style="overflow:visible;"/>
		</clipPath>
		<path class="st2" d="M22.1,3.1c1.4,0,2.5,0.2,3.4,0.6s1.7,1,2.3,1.7c0.6,0.7,1.1,1.5,1.4,2.4s0.6,1.8,0.8,2.7h0.4V3.2H30
			c-0.2,0.2-0.4,0.4-0.6,0.5c-0.2,0.2-0.5,0.2-1,0.2c-0.4,0-0.7-0.1-1.1-0.2c-0.4-0.1-0.8-0.3-1.3-0.5s-1-0.3-1.5-0.5
			c-0.6-0.1-1.2-0.2-2-0.2"/>
	</g>
</g>
<polyline class="st3" points="13.3,18.3 5.4,18.3 9.3,7.9 13.3,18.4 "/>
<g>
	<g>
		<defs>
			<rect id="SVGID_5_" x="1" y="2.6" width="30" height="26.8"/>
		</defs>
		<clipPath id="SVGID_6_">
			<use xlink:href="#SVGID_5_"  style="overflow:visible;"/>
		</clipPath>
		<polyline class="st4" points="1.7,28.1 5.2,18.8 14,18.8 		"/>
	</g>
</g>
</svg>
